<?xml version="1.0" encoding="utf-8"?>
<!-- Generator: Adobe Illustrator 26.0.1, SVG Export Plug-In . SVG Version: 6.00 Build 0)  -->
<svg version="1.1" id="图层_1" xmlns="http://www.w3.org/2000/svg" xmlns:xlink="http://www.w3.org/1999/xlink" x="0px" y="0px"
	 viewBox="0 0 595.28 595.28" style="enable-background:new 0 0 595.28 595.28;" xml:space="preserve">
<style type="text/css">
	.st0{fill:#0009C0;}
</style>
<path class="st0" d="M410.46,297.63h-28.65l28.65,28.67v84.17h-96.58l65.61-65.61v-21.39l-54.48-54.48h36.01v-22.63l-0.23-0.23
	l-50.72,0.93l-19.96,19.96l61.08,61.08v13.03l-7.01,7.01l-62.3,62.32h-97.07v-53.41h81.66l32.09-32.09l-55.81-55.81v-10.6l5.65-5.65
	l68.09-68.09h93.97V297.63z M280.15,325.97l-54.17-54.17v-21.37l65.61-65.61h-71.3l-35.47,35.47v58.62L226.91,321h-42.09v25.13
	h75.17L280.15,325.97z"/>
</svg>
